<mxfile host="65bd71144e">
    <diagram name="Физическая" id="CYQ7UzJm_QDyhx_V3tmj">
        <mxGraphModel dx="1130" dy="259" grid="1" gridSize="10" guides="1" tooltips="1" connect="1" arrows="1" fold="1" page="1" pageScale="1" pageWidth="827" pageHeight="1169" math="0" shadow="0">
            <root>
                <mxCell id="0"/>
                <mxCell id="1" parent="0"/>
                <mxCell id="23YrCqFrMJOy3-r_V5tc-1" value="USER_TEACHER" style="shape=table;startSize=30;container=1;collapsible=1;childLayout=tableLayout;fixedRows=1;rowLines=0;fontStyle=1;align=center;resizeLast=1;html=1;" parent="1" vertex="1">
                    <mxGeometry x="-80" y="172.5" width="270" height="128" as="geometry"/>
                </mxCell>
                <mxCell id="23YrCqFrMJOy3-r_V5tc-2" value="" style="shape=tableRow;horizontal=0;startSize=0;swimlaneHead=0;swimlaneBody=0;fillColor=none;collapsible=0;dropTarget=0;points=[[0,0.5],[1,0.5]];portConstraint=eastwest;top=0;left=0;right=0;bottom=1;" parent="23YrCqFrMJOy3-r_V5tc-1" vertex="1">
                    <mxGeometry y="30" width="270" height="30" as="geometry"/>
                </mxCell>
                <mxCell id="23YrCqFrMJOy3-r_V5tc-3" value="PK" style="shape=partialRectangle;connectable=0;fillColor=none;top=0;left=0;bottom=0;right=0;fontStyle=1;overflow=hidden;whiteSpace=wrap;html=1;" parent="23YrCqFrMJOy3-r_V5tc-2" vertex="1">
                    <mxGeometry width="30" height="30" as="geometry">
                        <mxRectangle width="30" height="30" as="alternateBounds"/>
                    </mxGeometry>
                </mxCell>
                <mxCell id="23YrCqFrMJOy3-r_V5tc-4" value="&lt;span style=&quot;font-weight: 400;&quot;&gt;ID: Integer(14)&lt;/span&gt;" style="shape=partialRectangle;connectable=0;fillColor=none;top=0;left=0;bottom=0;right=0;align=left;spacingLeft=6;fontStyle=5;overflow=hidden;whiteSpace=wrap;html=1;" parent="23YrCqFrMJOy3-r_V5tc-2" vertex="1">
                    <mxGeometry x="30" width="240" height="30" as="geometry">
                        <mxRectangle width="240" height="30" as="alternateBounds"/>
                    </mxGeometry>
                </mxCell>
                <mxCell id="23YrCqFrMJOy3-r_V5tc-5" value="" style="shape=tableRow;horizontal=0;startSize=0;swimlaneHead=0;swimlaneBody=0;fillColor=none;collapsible=0;dropTarget=0;points=[[0,0.5],[1,0.5]];portConstraint=eastwest;top=0;left=0;right=0;bottom=0;" parent="23YrCqFrMJOy3-r_V5tc-1" vertex="1">
                    <mxGeometry y="60" width="270" height="68" as="geometry"/>
                </mxCell>
                <mxCell id="23YrCqFrMJOy3-r_V5tc-6" value="&lt;div&gt;FK&lt;/div&gt;&lt;div&gt;&lt;br&gt;&lt;/div&gt;&lt;div&gt;FK&lt;/div&gt;&lt;div&gt;FK&lt;/div&gt;&lt;div&gt;&lt;br&gt;&lt;/div&gt;&lt;div&gt;&lt;br&gt;&lt;/div&gt;&lt;div&gt;&lt;br&gt;&lt;/div&gt;" style="shape=partialRectangle;connectable=0;fillColor=none;top=0;left=0;bottom=0;right=0;editable=1;overflow=hidden;whiteSpace=wrap;html=1;" parent="23YrCqFrMJOy3-r_V5tc-5" vertex="1">
                    <mxGeometry width="30" height="68" as="geometry">
                        <mxRectangle width="30" height="68" as="alternateBounds"/>
                    </mxGeometry>
                </mxCell>
                <mxCell id="23YrCqFrMJOy3-r_V5tc-7" value="&lt;div&gt;&lt;span style=&quot;background-color: initial;&quot;&gt;user_id: Integer(14)&lt;/span&gt;&lt;/div&gt;&lt;div&gt;&lt;div&gt;&lt;span style=&quot;background-color: initial;&quot;&gt;status: Boolean NOT NULL&lt;/span&gt;&lt;/div&gt;&lt;/div&gt;&lt;div&gt;subject_id: Integer&lt;span style=&quot;background-color: initial;&quot;&gt;(14) NOT NULL&lt;/span&gt;&lt;/div&gt;&lt;div&gt;subscription_id: Integer&lt;span style=&quot;background-color: initial;&quot;&gt;(14)&lt;/span&gt;&lt;/div&gt;&lt;div&gt;&lt;span style=&quot;background-color: initial;&quot;&gt;&lt;br&gt;&lt;/span&gt;&lt;/div&gt;&lt;div&gt;&lt;span style=&quot;background-color: initial;&quot;&gt;&lt;br&gt;&lt;/span&gt;&lt;/div&gt;&lt;div&gt;&lt;span style=&quot;background-color: initial;&quot;&gt;&lt;br&gt;&lt;/span&gt;&lt;/div&gt;" style="shape=partialRectangle;connectable=0;fillColor=none;top=0;left=0;bottom=0;right=0;align=left;spacingLeft=6;overflow=hidden;whiteSpace=wrap;html=1;" parent="23YrCqFrMJOy3-r_V5tc-5" vertex="1">
                    <mxGeometry x="30" width="240" height="68" as="geometry">
                        <mxRectangle width="240" height="68" as="alternateBounds"/>
                    </mxGeometry>
                </mxCell>
                <mxCell id="23YrCqFrMJOy3-r_V5tc-8" value="USER" style="shape=table;startSize=30;container=1;collapsible=1;childLayout=tableLayout;fixedRows=1;rowLines=0;fontStyle=1;align=center;resizeLast=1;html=1;" parent="1" vertex="1">
                    <mxGeometry x="300" y="172.5" width="250" height="130" as="geometry"/>
                </mxCell>
                <mxCell id="23YrCqFrMJOy3-r_V5tc-9" value="" style="shape=tableRow;horizontal=0;startSize=0;swimlaneHead=0;swimlaneBody=0;fillColor=none;collapsible=0;dropTarget=0;points=[[0,0.5],[1,0.5]];portConstraint=eastwest;top=0;left=0;right=0;bottom=1;" parent="23YrCqFrMJOy3-r_V5tc-8" vertex="1">
                    <mxGeometry y="30" width="250" height="30" as="geometry"/>
                </mxCell>
                <mxCell id="23YrCqFrMJOy3-r_V5tc-10" value="PK" style="shape=partialRectangle;connectable=0;fillColor=none;top=0;left=0;bottom=0;right=0;fontStyle=1;overflow=hidden;whiteSpace=wrap;html=1;" parent="23YrCqFrMJOy3-r_V5tc-9" vertex="1">
                    <mxGeometry width="30" height="30" as="geometry">
                        <mxRectangle width="30" height="30" as="alternateBounds"/>
                    </mxGeometry>
                </mxCell>
                <mxCell id="23YrCqFrMJOy3-r_V5tc-11" value="&lt;span style=&quot;font-weight: 400;&quot;&gt;ID: Integer(14)&lt;/span&gt;" style="shape=partialRectangle;connectable=0;fillColor=none;top=0;left=0;bottom=0;right=0;align=left;spacingLeft=6;fontStyle=5;overflow=hidden;whiteSpace=wrap;html=1;" parent="23YrCqFrMJOy3-r_V5tc-9" vertex="1">
                    <mxGeometry x="30" width="220" height="30" as="geometry">
                        <mxRectangle width="220" height="30" as="alternateBounds"/>
                    </mxGeometry>
                </mxCell>
                <mxCell id="23YrCqFrMJOy3-r_V5tc-12" value="" style="shape=tableRow;horizontal=0;startSize=0;swimlaneHead=0;swimlaneBody=0;fillColor=none;collapsible=0;dropTarget=0;points=[[0,0.5],[1,0.5]];portConstraint=eastwest;top=0;left=0;right=0;bottom=0;" parent="23YrCqFrMJOy3-r_V5tc-8" vertex="1">
                    <mxGeometry y="60" width="250" height="70" as="geometry"/>
                </mxCell>
                <mxCell id="23YrCqFrMJOy3-r_V5tc-13" value="" style="shape=partialRectangle;connectable=0;fillColor=none;top=0;left=0;bottom=0;right=0;editable=1;overflow=hidden;whiteSpace=wrap;html=1;" parent="23YrCqFrMJOy3-r_V5tc-12" vertex="1">
                    <mxGeometry width="30" height="70" as="geometry">
                        <mxRectangle width="30" height="70" as="alternateBounds"/>
                    </mxGeometry>
                </mxCell>
                <mxCell id="23YrCqFrMJOy3-r_V5tc-14" value="&lt;div&gt;&lt;div&gt;first_name: Varchar(100) NOT NULL&lt;/div&gt;&lt;/div&gt;&lt;div&gt;last_name: Varchar(100) NOT NULL&lt;/div&gt;&lt;div&gt;age: Integer(3) NOT NULL&lt;/div&gt;&lt;div&gt;email: Varchar(100) NOT NULL&lt;/div&gt;&lt;div&gt;&lt;br&gt;&lt;/div&gt;&lt;div&gt;&lt;br&gt;&lt;/div&gt;" style="shape=partialRectangle;connectable=0;fillColor=none;top=0;left=0;bottom=0;right=0;align=left;spacingLeft=6;overflow=hidden;whiteSpace=wrap;html=1;" parent="23YrCqFrMJOy3-r_V5tc-12" vertex="1">
                    <mxGeometry x="30" width="220" height="70" as="geometry">
                        <mxRectangle width="220" height="70" as="alternateBounds"/>
                    </mxGeometry>
                </mxCell>
                <mxCell id="23YrCqFrMJOy3-r_V5tc-15" value="SUBSCRIPTION" style="shape=table;startSize=30;container=1;collapsible=1;childLayout=tableLayout;fixedRows=1;rowLines=0;fontStyle=1;align=center;resizeLast=1;html=1;" parent="1" vertex="1">
                    <mxGeometry x="-413" y="190" width="240" height="135" as="geometry"/>
                </mxCell>
                <mxCell id="23YrCqFrMJOy3-r_V5tc-16" value="" style="shape=tableRow;horizontal=0;startSize=0;swimlaneHead=0;swimlaneBody=0;fillColor=none;collapsible=0;dropTarget=0;points=[[0,0.5],[1,0.5]];portConstraint=eastwest;top=0;left=0;right=0;bottom=1;" parent="23YrCqFrMJOy3-r_V5tc-15" vertex="1">
                    <mxGeometry y="30" width="240" height="30" as="geometry"/>
                </mxCell>
                <mxCell id="23YrCqFrMJOy3-r_V5tc-17" value="PK" style="shape=partialRectangle;connectable=0;fillColor=none;top=0;left=0;bottom=0;right=0;fontStyle=1;overflow=hidden;whiteSpace=wrap;html=1;" parent="23YrCqFrMJOy3-r_V5tc-16" vertex="1">
                    <mxGeometry width="30" height="30" as="geometry">
                        <mxRectangle width="30" height="30" as="alternateBounds"/>
                    </mxGeometry>
                </mxCell>
                <mxCell id="23YrCqFrMJOy3-r_V5tc-18" value="&lt;span style=&quot;font-weight: 400;&quot;&gt;ID: Integer (14)&lt;/span&gt;" style="shape=partialRectangle;connectable=0;fillColor=none;top=0;left=0;bottom=0;right=0;align=left;spacingLeft=6;fontStyle=5;overflow=hidden;whiteSpace=wrap;html=1;" parent="23YrCqFrMJOy3-r_V5tc-16" vertex="1">
                    <mxGeometry x="30" width="210" height="30" as="geometry">
                        <mxRectangle width="210" height="30" as="alternateBounds"/>
                    </mxGeometry>
                </mxCell>
                <mxCell id="23YrCqFrMJOy3-r_V5tc-19" value="" style="shape=tableRow;horizontal=0;startSize=0;swimlaneHead=0;swimlaneBody=0;fillColor=none;collapsible=0;dropTarget=0;points=[[0,0.5],[1,0.5]];portConstraint=eastwest;top=0;left=0;right=0;bottom=0;" parent="23YrCqFrMJOy3-r_V5tc-15" vertex="1">
                    <mxGeometry y="60" width="240" height="75" as="geometry"/>
                </mxCell>
                <mxCell id="23YrCqFrMJOy3-r_V5tc-20" value="" style="shape=partialRectangle;connectable=0;fillColor=none;top=0;left=0;bottom=0;right=0;editable=1;overflow=hidden;whiteSpace=wrap;html=1;" parent="23YrCqFrMJOy3-r_V5tc-19" vertex="1">
                    <mxGeometry width="30" height="75" as="geometry">
                        <mxRectangle width="30" height="75" as="alternateBounds"/>
                    </mxGeometry>
                </mxCell>
                <mxCell id="23YrCqFrMJOy3-r_V5tc-21" value="&lt;div&gt;&lt;div&gt;type: Varchar(32) NOT NULL&lt;/div&gt;&lt;/div&gt;&lt;div&gt;price: Integer(14) NOT NULL&lt;/div&gt;&lt;div&gt;start_date: Date NOT NULL&lt;/div&gt;&lt;div&gt;end_date: Date NOT NULL&lt;/div&gt;" style="shape=partialRectangle;connectable=0;fillColor=none;top=0;left=0;bottom=0;right=0;align=left;spacingLeft=6;overflow=hidden;whiteSpace=wrap;html=1;" parent="23YrCqFrMJOy3-r_V5tc-19" vertex="1">
                    <mxGeometry x="30" width="210" height="75" as="geometry">
                        <mxRectangle width="210" height="75" as="alternateBounds"/>
                    </mxGeometry>
                </mxCell>
                <mxCell id="23YrCqFrMJOy3-r_V5tc-22" value="SUBJECT" style="shape=table;startSize=30;container=1;collapsible=1;childLayout=tableLayout;fixedRows=1;rowLines=0;fontStyle=1;align=center;resizeLast=1;html=1;" parent="1" vertex="1">
                    <mxGeometry x="-90" y="432.5" width="240" height="95.00000000000034" as="geometry"/>
                </mxCell>
                <mxCell id="23YrCqFrMJOy3-r_V5tc-23" value="" style="shape=tableRow;horizontal=0;startSize=0;swimlaneHead=0;swimlaneBody=0;fillColor=none;collapsible=0;dropTarget=0;points=[[0,0.5],[1,0.5]];portConstraint=eastwest;top=0;left=0;right=0;bottom=1;" parent="23YrCqFrMJOy3-r_V5tc-22" vertex="1">
                    <mxGeometry y="30" width="240" height="30" as="geometry"/>
                </mxCell>
                <mxCell id="23YrCqFrMJOy3-r_V5tc-24" value="PK" style="shape=partialRectangle;connectable=0;fillColor=none;top=0;left=0;bottom=0;right=0;fontStyle=1;overflow=hidden;whiteSpace=wrap;html=1;" parent="23YrCqFrMJOy3-r_V5tc-23" vertex="1">
                    <mxGeometry width="30" height="30" as="geometry">
                        <mxRectangle width="30" height="30" as="alternateBounds"/>
                    </mxGeometry>
                </mxCell>
                <mxCell id="23YrCqFrMJOy3-r_V5tc-25" value="&lt;span style=&quot;font-weight: 400;&quot;&gt;ID: Integer(14)&lt;/span&gt;" style="shape=partialRectangle;connectable=0;fillColor=none;top=0;left=0;bottom=0;right=0;align=left;spacingLeft=6;fontStyle=5;overflow=hidden;whiteSpace=wrap;html=1;" parent="23YrCqFrMJOy3-r_V5tc-23" vertex="1">
                    <mxGeometry x="30" width="210" height="30" as="geometry">
                        <mxRectangle width="210" height="30" as="alternateBounds"/>
                    </mxGeometry>
                </mxCell>
                <mxCell id="23YrCqFrMJOy3-r_V5tc-26" value="" style="shape=tableRow;horizontal=0;startSize=0;swimlaneHead=0;swimlaneBody=0;fillColor=none;collapsible=0;dropTarget=0;points=[[0,0.5],[1,0.5]];portConstraint=eastwest;top=0;left=0;right=0;bottom=0;" parent="23YrCqFrMJOy3-r_V5tc-22" vertex="1">
                    <mxGeometry y="60" width="240" height="35" as="geometry"/>
                </mxCell>
                <mxCell id="23YrCqFrMJOy3-r_V5tc-27" value="" style="shape=partialRectangle;connectable=0;fillColor=none;top=0;left=0;bottom=0;right=0;editable=1;overflow=hidden;whiteSpace=wrap;html=1;" parent="23YrCqFrMJOy3-r_V5tc-26" vertex="1">
                    <mxGeometry width="30" height="35" as="geometry">
                        <mxRectangle width="30" height="35" as="alternateBounds"/>
                    </mxGeometry>
                </mxCell>
                <mxCell id="23YrCqFrMJOy3-r_V5tc-28" value="&lt;div&gt;&lt;div&gt;name: Varchar(100) NOT NULL&lt;/div&gt;&lt;/div&gt;&lt;div&gt;&lt;br&gt;&lt;/div&gt;" style="shape=partialRectangle;connectable=0;fillColor=none;top=0;left=0;bottom=0;right=0;align=left;spacingLeft=6;overflow=hidden;whiteSpace=wrap;html=1;" parent="23YrCqFrMJOy3-r_V5tc-26" vertex="1">
                    <mxGeometry x="30" width="210" height="35" as="geometry">
                        <mxRectangle width="210" height="35" as="alternateBounds"/>
                    </mxGeometry>
                </mxCell>
                <mxCell id="23YrCqFrMJOy3-r_V5tc-34" value="" style="fontSize=12;html=1;endArrow=ERzeroToMany;startArrow=ERmandOne;rounded=0;entryX=0;entryY=0.567;entryDx=0;entryDy=0;exitX=1;exitY=0.5;exitDx=0;exitDy=0;entryPerimeter=0;" parent="1" source="23YrCqFrMJOy3-r_V5tc-26" target="23YrCqFrMJOy3-r_V5tc-39" edge="1">
                    <mxGeometry width="100" height="100" relative="1" as="geometry">
                        <mxPoint x="360" y="500" as="sourcePoint"/>
                        <mxPoint x="460" y="400" as="targetPoint"/>
                    </mxGeometry>
                </mxCell>
                <mxCell id="23YrCqFrMJOy3-r_V5tc-35" value="LESSON" style="shape=table;startSize=30;container=1;collapsible=1;childLayout=tableLayout;fixedRows=1;rowLines=0;fontStyle=1;align=center;resizeLast=1;html=1;" parent="1" vertex="1">
                    <mxGeometry x="289" y="415" width="250" height="120" as="geometry"/>
                </mxCell>
                <mxCell id="23YrCqFrMJOy3-r_V5tc-36" value="" style="shape=tableRow;horizontal=0;startSize=0;swimlaneHead=0;swimlaneBody=0;fillColor=none;collapsible=0;dropTarget=0;points=[[0,0.5],[1,0.5]];portConstraint=eastwest;top=0;left=0;right=0;bottom=1;" parent="23YrCqFrMJOy3-r_V5tc-35" vertex="1">
                    <mxGeometry y="30" width="250" height="30" as="geometry"/>
                </mxCell>
                <mxCell id="23YrCqFrMJOy3-r_V5tc-37" value="PK" style="shape=partialRectangle;connectable=0;fillColor=none;top=0;left=0;bottom=0;right=0;fontStyle=1;overflow=hidden;whiteSpace=wrap;html=1;" parent="23YrCqFrMJOy3-r_V5tc-36" vertex="1">
                    <mxGeometry width="30" height="30" as="geometry">
                        <mxRectangle width="30" height="30" as="alternateBounds"/>
                    </mxGeometry>
                </mxCell>
                <mxCell id="23YrCqFrMJOy3-r_V5tc-38" value="&lt;span style=&quot;font-weight: 400;&quot;&gt;ID: Integer(14)&lt;/span&gt;" style="shape=partialRectangle;connectable=0;fillColor=none;top=0;left=0;bottom=0;right=0;align=left;spacingLeft=6;fontStyle=5;overflow=hidden;whiteSpace=wrap;html=1;" parent="23YrCqFrMJOy3-r_V5tc-36" vertex="1">
                    <mxGeometry x="30" width="220" height="30" as="geometry">
                        <mxRectangle width="220" height="30" as="alternateBounds"/>
                    </mxGeometry>
                </mxCell>
                <mxCell id="23YrCqFrMJOy3-r_V5tc-39" value="" style="shape=tableRow;horizontal=0;startSize=0;swimlaneHead=0;swimlaneBody=0;fillColor=none;collapsible=0;dropTarget=0;points=[[0,0.5],[1,0.5]];portConstraint=eastwest;top=0;left=0;right=0;bottom=0;" parent="23YrCqFrMJOy3-r_V5tc-35" vertex="1">
                    <mxGeometry y="60" width="250" height="60" as="geometry"/>
                </mxCell>
                <mxCell id="23YrCqFrMJOy3-r_V5tc-40" value="FK&lt;div&gt;FK&lt;/div&gt;&lt;div&gt;&lt;br&gt;&lt;/div&gt;" style="shape=partialRectangle;connectable=0;fillColor=none;top=0;left=0;bottom=0;right=0;editable=1;overflow=hidden;whiteSpace=wrap;html=1;" parent="23YrCqFrMJOy3-r_V5tc-39" vertex="1">
                    <mxGeometry width="30" height="60" as="geometry">
                        <mxRectangle width="30" height="60" as="alternateBounds"/>
                    </mxGeometry>
                </mxCell>
                <mxCell id="23YrCqFrMJOy3-r_V5tc-41" value="&lt;div&gt;&lt;div&gt;subject_id: Integer(14) NOT NULL&lt;/div&gt;&lt;/div&gt;&lt;div&gt;user_id: Integer&lt;span style=&quot;background-color: initial;&quot;&gt;(14) NOT NULL&lt;/span&gt;&lt;/div&gt;&lt;div&gt;date: Date NOT NULL&lt;/div&gt;" style="shape=partialRectangle;connectable=0;fillColor=none;top=0;left=0;bottom=0;right=0;align=left;spacingLeft=6;overflow=hidden;whiteSpace=wrap;html=1;" parent="23YrCqFrMJOy3-r_V5tc-39" vertex="1">
                    <mxGeometry x="30" width="220" height="60" as="geometry">
                        <mxRectangle width="220" height="60" as="alternateBounds"/>
                    </mxGeometry>
                </mxCell>
                <mxCell id="-LpSs8ZB3ltJRNqvp-WY-1" value="" style="fontSize=12;html=1;endArrow=ERzeroToMany;startArrow=ERzeroToOne;rounded=0;entryX=0;entryY=0.691;entryDx=0;entryDy=0;entryPerimeter=0;exitX=1;exitY=0.396;exitDx=0;exitDy=0;exitPerimeter=0;" parent="1" source="23YrCqFrMJOy3-r_V5tc-19" target="23YrCqFrMJOy3-r_V5tc-5" edge="1">
                    <mxGeometry width="100" height="100" relative="1" as="geometry">
                        <mxPoint x="-173" y="280" as="sourcePoint"/>
                        <mxPoint x="-93" y="280" as="targetPoint"/>
                    </mxGeometry>
                </mxCell>
                <mxCell id="-0tCB1F8_5mfXYan5piR-1" value="" style="fontSize=12;html=1;endArrow=ERzeroToOne;startArrow=ERmandOne;rounded=0;entryX=1.001;entryY=0.36;entryDx=0;entryDy=0;entryPerimeter=0;" parent="1" target="23YrCqFrMJOy3-r_V5tc-5" edge="1">
                    <mxGeometry width="100" height="100" relative="1" as="geometry">
                        <mxPoint x="300" y="257" as="sourcePoint"/>
                        <mxPoint x="200" y="257.19" as="targetPoint"/>
                    </mxGeometry>
                </mxCell>
                <mxCell id="o2ftoTeuRbv987fO5cah-1" value="" style="fontSize=12;html=1;endArrow=ERoneToMany;startArrow=ERzeroToOne;rounded=0;entryX=0.399;entryY=0.998;entryDx=0;entryDy=0;entryPerimeter=0;exitX=0.445;exitY=-0.004;exitDx=0;exitDy=0;exitPerimeter=0;" parent="1" source="23YrCqFrMJOy3-r_V5tc-35" target="23YrCqFrMJOy3-r_V5tc-12" edge="1">
                    <mxGeometry width="100" height="100" relative="1" as="geometry">
                        <mxPoint x="400" y="410" as="sourcePoint"/>
                        <mxPoint x="370" y="340" as="targetPoint"/>
                    </mxGeometry>
                </mxCell>
                <mxCell id="gGNqpMn9-UD94j3GnLK_-2" value="" style="fontSize=12;html=1;endArrow=ERoneToMany;startArrow=ERmandOne;rounded=0;entryX=0.446;entryY=1.002;entryDx=0;entryDy=0;entryPerimeter=0;exitX=0.544;exitY=0.003;exitDx=0;exitDy=0;exitPerimeter=0;" parent="1" source="23YrCqFrMJOy3-r_V5tc-22" target="23YrCqFrMJOy3-r_V5tc-5" edge="1">
                    <mxGeometry width="100" height="100" relative="1" as="geometry">
                        <mxPoint x="70" y="440" as="sourcePoint"/>
                        <mxPoint x="170" y="340" as="targetPoint"/>
                    </mxGeometry>
                </mxCell>
            </root>
        </mxGraphModel>
    </diagram>
</mxfile>